<?xml version="1.0" encoding="UTF-8"?>
<svg id="Capa_1" xmlns="http://www.w3.org/2000/svg" version="1.1" viewBox="0 0 641.3 616.6">
  <!-- Generator: Adobe Illustrator 30.2.1, SVG Export Plug-In . SVG Version: 2.1.1 Build 1)  -->
  <path d="M310.9,0C301,0,291.2.5,281.4,1.5c-12.3,1.2-21.9,10.9-23.1,23.1-11.8,122.4-108.7,219.3-231.1,231.1-12.3,1.2-21.9,10.9-23.1,23.1-.9,9.7-1.5,19.5-1.5,29.4,0,170.3,138,308.3,308.3,308.3s308.3-138,308.3-308.3S481.2,0,310.9,0ZM239.8,470c-44.6,0-80.8-36.2-80.8-80.8s36.2-80.8,80.8-80.8,80.8,36.2,80.8,80.8-36.2,80.8-80.8,80.8ZM320.7,227.5c0-44.6,36.2-80.8,80.8-80.8s80.8,36.2,80.8,80.8-36.2,80.8-80.8,80.8-80.8-36.2-80.8-80.8Z"/>
</svg>