<?xml version="1.0" encoding="UTF-8"?>
<svg id="Layer_1" xmlns="http://www.w3.org/2000/svg" version="1.1" viewBox="0 0 1359.4 270.6">
  <!-- Generator: Adobe Illustrator 30.2.1, SVG Export Plug-In . SVG Version: 2.1.1 Build 1)  -->
  <defs>
    <style>
      .st0 {
        fill: #010101;
      }
    </style>
  </defs>
  <g>
    <path class="st0" d="M377.8,230.7V49.2h46.4v69.7h24.9l39.2-69.7h52.8l-53.8,86.9,53.3,94.6h-53.8l-36.7-69h-25.9v69h-46.4Z"/>
    <path class="st0" d="M617.8,232.8c-20.7,0-36.7-5.2-48.1-15.5-11.4-10.3-17.1-25.9-17.1-46.5v-75.1h45.4v71.5c0,4.4.6,8.5,1.8,12.2,1.2,3.7,3.3,6.6,6.3,8.8,3,2.2,7,3.3,11.9,3.3s9.7-1.3,12.2-3.8c2.5-2.6,4-5.8,4.6-9.6.6-3.8.9-7.5.9-10.9v-71.5h45.1v75.1c0,22.1-5.7,37.9-17.1,47.6-11.4,9.7-26.7,14.5-46,14.5Z"/>
    <path class="st0" d="M704.7,230.7V49.2h45.4v94.1h13.6l28.2-47.7h50.8l-41.8,64.4,45.1,70.8h-52.3l-29.2-46.9h-14.4v46.9h-45.4Z"/>
    <path class="st0" d="M877.5,86.4c-8.2,0-14.8-2.4-19.9-7.3-5-4.9-7.6-11.2-7.6-19.1s2.6-14.6,7.9-19.7c5.3-5.1,11.9-7.7,19.7-7.7s13.9,2.4,19.2,7.3c5.3,4.9,7.9,11.5,7.9,19.9s-2.5,14.5-7.6,19.4c-5,4.9-11.7,7.3-19.9,7.3ZM854.7,230.7V95.6h45.4v135.1h-45.4Z"/>
    <path class="st0" d="M988.3,232.8c-13.8,0-25.9-2.8-36.3-8.3-10.3-5.6-18.4-13.5-24.1-23.7-5.7-10.3-8.6-22.5-8.6-36.7s2.9-26.6,8.7-37.3c5.8-10.7,13.9-19,24.4-25,10.4-6,22.6-9,36.4-9s18.8,1.5,26.7,4.6c7.9,3.1,14.6,7.5,20.3,13.3,5.6,5.8,10,12.8,12.9,21,3,8.2,4.5,17.4,4.5,27.7s-.1,5.7-.4,8.3c-.3,2.7-.7,5.4-1.4,8.3h-87.2c.3,3.2,1.4,6.3,3.2,9.2,1.8,2.9,4.3,5.2,7.6,6.9,3.2,1.7,7.3,2.6,12.3,2.6s7.6-.5,10.6-1.4c3-.9,5.4-2.2,7.3-3.7,1.9-1.5,3.1-3.1,3.6-4.6h44.4c-2.4,11.1-6.8,20.2-13.2,27.3-6.4,7.1-14.1,12.3-23.1,15.5-9,3.2-18.5,4.9-28.6,4.9ZM965,146.6h45.6c0-2.6-.7-5.3-2.2-8.1-1.5-2.8-3.8-5.2-7.2-7.1-3.3-1.9-7.7-2.8-13.2-2.8s-9.7.9-13.1,2.8c-3.4,1.9-5.9,4.2-7.6,7.1-1.6,2.8-2.4,5.5-2.4,8.1Z"/>
    <path class="st0" d="M1098.5,235.1c-7.2,0-13.4-2.2-18.6-6.7-5.2-4.4-7.8-11-7.8-19.7s2.7-15.8,8.1-20.6c5.4-4.9,11.6-7.3,18.6-7.3s13.1,2.4,18.2,7.2c5.1,4.8,7.7,11.6,7.7,20.5s-2.6,15.6-7.7,20-11.3,6.7-18.5,6.7Z"/>
    <path class="st0" d="M1171.6,86.4c-8.2,0-14.8-2.4-19.9-7.3-5-4.9-7.6-11.2-7.6-19.1s2.6-14.6,7.9-19.7c5.3-5.1,11.9-7.7,19.7-7.7s13.9,2.4,19.2,7.3c5.3,4.9,7.9,11.5,7.9,19.9s-2.5,14.5-7.6,19.4c-5,4.9-11.7,7.3-19.9,7.3ZM1148.8,230.7V95.6h45.4v135.1h-45.4Z"/>
    <path class="st0" d="M1284.4,232.8c-13.3,0-25.3-2.6-36-7.9-10.7-5.3-19.2-13.1-25.5-23.5-6.3-10.3-9.5-22.9-9.5-37.8s3.2-28.1,9.6-38.6c6.4-10.5,14.9-18.5,25.5-24,10.6-5.5,22.3-8.2,35.1-8.2s25,2.8,35.5,8.5c10.5,5.6,18.9,13.8,25.1,24.4,6.2,10.6,9.4,23.5,9.4,38.7s-3,27.2-9,37.4c-6,10.3-14.2,18-24.6,23.2-10.4,5.2-22.3,7.8-35.6,7.8ZM1283.7,190.7c6.5,0,11.6-1.4,15.4-4.1,3.8-2.7,6.4-6.2,7.9-10.4,1.5-4.2,2.3-8.3,2.3-12.4s-.8-8.4-2.3-12.8c-1.5-4.4-4.1-8.2-7.8-11.3-3.7-3.1-8.8-4.6-15.5-4.6s-11.7,1.5-15.5,4.6-6.5,6.8-8.1,11.2c-1.5,4.4-2.3,8.7-2.3,12.9s.8,8.5,2.4,12.7c1.6,4.2,4.3,7.6,8.1,10.3,3.8,2.7,8.9,4,15.4,4Z"/>
  </g>
  <path class="st0" d="M134.8.5c-4.3,0-8.6.2-12.9.7-5.4.5-9.6,4.8-10.1,10.1-5.1,53.5-47.5,95.9-101,101-5.4.5-9.6,4.8-10.1,10.1-.4,4.2-.6,8.5-.6,12.9,0,74.4,60.3,134.8,134.8,134.8s134.8-60.3,134.8-134.8S209.2.5,134.8.5ZM103.7,206c-19.5,0-35.3-15.8-35.3-35.3s15.8-35.3,35.3-35.3,35.3,15.8,35.3,35.3-15.8,35.3-35.3,35.3ZM139,99.9c0-19.5,15.8-35.3,35.3-35.3s35.3,15.8,35.3,35.3-15.8,35.3-35.3,35.3-35.3-15.8-35.3-35.3Z"/>
</svg>